# xmcd CD database file
#
# Track frame offsets:
#	150
#	21508
#	31655
#	46534
#	70805
#	86120
#
# Disc length: 1425 seconds
#
# Revision: 1
# Processed by: cddbd v1.5PL3 Copyright (c) Steve Scherf et al.
# Submitted via: CDex 1.51
#
DISCID=41058f06
DTITLE=Abbie Cardwell - Love Motel
DYEAR=2004
DGENRE=Country
TTITLE0=Anchored
TTITLE1=Love Motel
TTITLE2=Half Lovin'
TTITLE3=Needing Home
TTITLE4=Simplify Me
TTITLE5=Too Into You
EXTD=YEAR: 2004
EXTT0=
EXTT1=
EXTT2=
EXTT3=
EXTT4=
EXTT5=
PLAYORDER=
